<svg width="20" height="20" viewBox="0 0 20 20" fill="none" xmlns="http://www.w3.org/2000/svg">
<path d="M17.2342 2.45903C17.576 2.55466 17.9949 2.76652 18.2771 3.1309C18.1507 2.91864 17.9618 2.72482 17.7771 2.58598C18.2046 2.8218 18.5052 3.25559 18.6736 3.69536C18.5072 3.13119 18.5201 3.20891 18.6502 3.43657C18.7729 3.67817 18.8261 4.02735 18.8309 4.03911C18.8446 4.03335 18.8232 3.60608 18.7898 3.51176C19.0305 3.93727 18.9651 5.01932 19.0721 4.38188C19.0578 4.49632 19.0836 4.77019 19.0867 4.77934C19.1417 4.74855 19.1158 4.11887 19.1463 4.21879C19.194 4.33785 19.1419 4.50826 19.1326 4.68852C19.0467 5.54212 19.2716 5.35694 19.0076 6.11137C19.0194 6.09855 19.031 6.0852 19.0428 6.07231C18.7603 6.85365 18.405 7.5193 18.0271 8.16704C17.9381 8.44853 17.5687 9.12086 17.3553 9.43168C17.3146 9.49297 17.087 9.78112 17.0662 9.8018C17.0294 9.83888 17.1825 9.60334 17.0965 9.69829C17.0795 9.7193 16.7215 10.2226 16.7703 10.2051C16.8124 10.1511 16.9209 9.96473 16.948 9.93754C17.1371 9.77028 16.0101 11.2934 15.9637 11.3741C15.9969 11.3463 16.0301 11.3179 16.0633 11.2901C15.9881 11.3833 15.9131 11.4763 15.8377 11.5684C15.8594 11.5248 15.8815 11.4812 15.9031 11.4375C15.8169 11.5437 15.711 11.6943 15.6277 11.7901C15.6146 11.8045 15.6258 11.7482 15.5955 11.7862C15.5655 11.8242 15.5983 11.8371 15.5584 11.8956C15.5136 11.9614 15.2705 12.2382 15.1932 12.3379C14.9056 12.7108 14.6227 13.0958 14.3133 13.4532C14.6035 13.0562 14.2713 13.4259 14.1932 13.5381C14.1764 13.5627 14.2268 13.6003 13.906 13.9629C13.6978 14.1975 13.8126 13.9237 13.5164 14.3457C13.8169 14.0833 13.5678 14.3744 13.365 14.6163C13.328 14.6609 13.0443 14.9788 12.9187 15.128C12.8756 15.1795 12.8335 15.2768 12.7771 15.3428C12.7384 15.3882 12.696 15.4115 12.6394 15.4776C12.3689 15.7937 12.0985 16.1009 11.8201 16.4024C11.9157 16.1769 11.6736 16.5149 11.6502 16.5352C11.5683 16.5942 11.8618 16.2571 11.7352 16.378C11.5626 16.5744 11.4208 16.7351 11.24 16.9375C11.3809 16.7978 11.1225 17.1634 11.0301 17.2256C11.0721 17.2389 10.8 17.4966 10.5359 17.7393L9.69413 18.6202L8.92265 17.7266C8.7573 17.5073 8.6161 17.3127 8.56132 17.2627C8.53551 17.2392 8.66056 17.4406 8.31523 17.0039C8.27747 16.956 8.30731 16.9604 8.28496 16.9366C8.2714 16.9227 8.14257 16.8685 8.09746 16.7579C8.07761 16.7131 8.29706 16.9139 7.87773 16.4317C7.98611 16.6681 7.30456 15.7842 7.18339 15.6045C7.20141 15.6408 7.22064 15.6787 7.24101 15.7178C7.12988 15.5421 7.09349 15.5314 7.06523 15.4942C6.95492 15.3482 6.80728 15.1268 6.70292 14.9971C6.57683 14.8403 6.54592 14.8643 6.40996 14.6651C6.43821 14.7154 6.46682 14.7664 6.49492 14.8164C6.39273 14.6822 6.29929 14.5567 6.20097 14.4258C6.46922 14.689 6.15615 14.3642 6.13359 14.337C6.10254 14.2996 6.16169 14.3411 6.11015 14.2784C6.10465 14.2719 6.09584 14.2941 6.01738 14.1954C5.85594 13.9915 5.90174 14.0102 5.83574 13.9239C5.82957 13.9159 5.83663 13.9546 5.71953 13.8067C5.34609 13.3325 5.73234 13.8025 5.74785 13.8184C5.76778 13.8384 5.705 13.6348 5.98906 14.0508C5.89368 13.9121 5.90794 13.8771 5.89726 13.8614C5.88778 13.848 5.70748 13.6176 5.69413 13.6016C5.59691 13.491 5.65691 13.6074 5.63652 13.587C5.61725 13.5667 5.42976 13.269 5.32695 13.2413C5.27412 13.0673 5.43112 13.2879 5.6082 13.5079C5.64267 13.533 5.46834 13.281 5.45585 13.2637C5.21402 12.9386 5.30744 13.1482 5.22929 13.0967C5.18813 13.0693 5.11635 12.9142 5.17167 13.0655C4.94926 12.7703 5.10285 12.9349 5.0916 12.9131C5.07468 12.8809 4.99051 12.7868 4.98124 12.7715C4.96937 12.7509 5.0294 12.8077 4.97929 12.7295C4.9708 12.7166 4.86085 12.6108 4.96464 12.7754C4.8154 12.5635 4.80975 12.5929 4.79472 12.4942C4.62175 12.4002 4.75903 12.3586 4.72246 12.2989C4.62511 12.1413 4.60218 12.2208 4.59355 12.2168C4.53673 12.1742 4.25636 11.7359 4.17558 11.6348C4.24334 11.6491 4.41126 11.9728 4.46562 12.0332C4.64566 12.2344 4.26753 11.7094 4.42851 11.8331C4.36814 11.776 4.30803 11.7189 4.24785 11.6612C4.19377 11.5149 4.3283 11.6802 4.08769 11.3555C4.02297 11.3203 4.25359 11.5879 4.19218 11.545C4.15577 11.5195 4.0217 11.3301 4.01152 11.3291C4.00089 11.331 4.12883 11.4975 4.09941 11.4805C4.03047 11.4395 3.62286 10.7816 3.9666 11.2588C3.87416 11.1236 3.87904 11.0159 3.783 10.9082C3.72241 10.84 3.93561 11.3217 3.51933 10.6622C3.53543 10.6332 3.6979 10.918 3.70488 10.9239C3.7144 10.9305 3.73708 10.8434 3.73417 10.8331C3.72161 10.7978 3.25618 10.1494 3.19706 9.98735C3.20036 10.0676 2.87213 9.47496 2.82695 9.41801C2.81424 9.40299 2.83093 9.47753 2.81816 9.46098C2.73963 9.35889 2.59469 9.02871 2.51542 8.88481C2.42698 8.72514 2.42187 8.75498 2.41679 8.74614C2.37901 8.67545 2.42186 8.72448 2.39824 8.68168C2.36196 8.61971 2.12004 8.15615 2.10722 8.13286C2.10306 8.12653 2.12025 8.21151 2.0662 8.1143C2.05701 8.09621 2.0854 8.10067 1.9246 7.79399C1.73664 7.42823 2.01876 8.06695 1.9207 7.92485C1.84021 7.66705 1.81135 7.69301 1.78398 7.627C1.77519 7.60481 1.72842 7.42308 1.64628 7.23051C1.70798 7.36533 1.77397 7.50225 1.83671 7.62602C1.78562 7.50292 1.66339 7.23803 1.62675 7.127C1.6084 7.07248 1.64979 7.10576 1.60429 6.99125C1.59552 6.96738 1.49365 6.89277 1.64335 7.18657C1.6316 7.21989 1.58589 7.06808 1.55449 7.00395C1.54859 6.99285 1.49917 6.97239 1.4871 6.87016C1.49077 6.84974 1.66444 7.04026 1.38749 6.45707C1.37895 6.43816 1.38642 6.51058 1.37773 6.49223C1.37095 6.47814 1.3307 6.32028 1.32304 6.29789C1.3156 6.2795 1.32364 6.36714 1.31425 6.34477C1.26558 6.22878 1.28539 6.0584 1.3455 6.30375C1.33002 6.21975 1.31653 6.13607 1.30546 6.05375C1.28064 6.1501 1.26309 5.93302 1.24296 5.81645C1.13662 5.01786 1.17258 5.55454 1.1414 5.41899C1.11102 5.18876 1.17937 5.36457 1.17753 4.99125C1.17772 4.97411 1.1611 5.07201 1.15507 5.07622C1.1589 5.06674 1.13066 5.02423 1.18437 4.78911L1.20781 4.70414C1.1914 4.77966 1.1805 4.85262 1.17363 4.91411C1.2098 4.8598 1.29044 4.38647 1.32011 4.35356C1.40824 4.15418 1.44418 4.12108 1.47831 4.06743C1.51755 4.01906 1.56136 3.91513 1.80839 3.69243C1.8537 3.65272 1.96514 3.58421 2.07402 3.51957C2.28994 3.4023 2.14741 3.45134 1.93242 3.585C1.72145 3.71078 1.50706 3.96774 1.49101 3.98149C1.48042 3.98656 1.691 3.69673 1.98613 3.52739C2.27716 3.35222 2.54229 3.30221 2.56718 3.29594C2.72688 3.26072 2.07903 3.46319 2.21269 3.44731C2.22861 3.44344 2.37467 3.37444 2.59257 3.32231C2.80654 3.27125 3.02428 3.24802 3.26738 3.24614C3.5386 3.24392 3.78133 3.27684 3.8748 3.29497C4.15515 3.35055 4.2572 3.44227 4.27519 3.3809C4.33618 3.46004 4.41257 3.43814 4.44609 3.44829C4.8461 3.58252 4.84334 3.58834 5.16679 3.72661C5.23673 3.75811 5.28677 3.80401 5.3123 3.81352C5.32718 3.81903 5.30997 3.78731 5.38163 3.81743C5.4876 3.85387 6.01692 4.19988 6.04472 4.2393C6.07724 4.2727 5.8211 4.09884 5.8582 4.14457C6.04726 4.26653 6.22355 4.38504 6.40019 4.52055C6.47259 4.57654 6.42851 4.55785 6.45976 4.58207C6.47763 4.59424 6.72716 4.78 6.71855 4.7686C6.70745 4.72965 5.9107 4.15672 6.13163 4.29204C6.17601 4.3172 6.30275 4.44393 6.2996 4.39946C7.00935 4.92865 7.61365 5.53608 8.16581 6.17289C7.82857 5.82606 7.46375 5.41576 7.07695 5.07036C7.02483 5.02262 6.84524 4.86199 6.85624 4.89457C7.19062 5.18443 7.58409 5.55808 7.8582 5.87016C7.867 5.88013 7.82306 5.85557 7.85527 5.8936C7.91633 5.96423 8.13488 6.17248 8.16288 6.21489C8.15535 6.21077 8.04106 6.1093 8.06523 6.15434C8.13067 6.27588 8.20401 6.2534 8.2791 6.34184C8.34042 6.41059 8.68994 6.88766 8.79667 6.99418C8.91178 7.10316 8.53461 6.64271 8.57499 6.66606C8.84464 6.96735 9.07579 7.30404 9.29863 7.61039C9.30214 7.6148 9.27977 7.56018 9.33085 7.62797C9.42054 7.74771 9.42331 7.78646 9.46367 7.84965C9.49438 7.89724 9.5796 8.02584 9.63261 8.10746C9.73573 7.89958 9.83564 7.71113 9.91972 7.58012C9.81663 7.75996 9.7266 7.93928 9.6414 8.12211C9.65205 8.13874 9.66197 8.15193 9.66777 8.16215C10.0119 7.45308 10.4036 6.76945 10.8455 6.11528C10.962 5.95121 10.9219 6.0546 11.1062 5.78129C11.049 5.84619 10.9928 5.91013 10.9363 5.97661C11.0324 5.83794 11.4979 5.24043 11.576 5.14653C11.5856 5.13396 11.5802 5.1009 11.7019 4.95512C11.8107 4.82626 11.8431 4.81791 11.906 4.75297C11.9591 4.69845 12.0138 4.63301 12.0301 4.61723C12.0424 4.60539 12.0551 4.60756 12.0848 4.57914C12.1799 4.48833 12.0847 4.54414 12.201 4.47465C12.1798 4.49809 12.1584 4.52135 12.1375 4.54497C12.2509 4.43414 12.4164 4.29432 12.2566 4.46391C12.2294 4.49331 12.2464 4.46215 12.2254 4.48344C11.4353 5.34151 12.0691 4.66058 12.3533 4.3643C12.4351 4.2975 12.8731 3.89733 12.8943 3.89067C12.9173 3.87754 12.8474 3.94977 12.9568 3.87407C12.9726 3.84992 13.6195 3.38309 13.3963 3.56352C13.3479 3.59816 13.0387 3.82167 12.9695 3.88188C13.1527 3.76739 13.5433 3.44432 13.5975 3.41704C13.7957 3.29753 13.2378 3.67804 13.6795 3.40239C14.0257 3.20173 13.6911 3.37402 13.8201 3.28911C13.8913 3.23694 14.3095 3.0563 14.2898 3.03813C14.4324 2.97265 14.3561 3.02258 14.3728 3.01664C14.3897 3.00821 14.6767 2.88706 14.7762 2.8643C14.7875 2.86154 14.756 2.8866 14.7684 2.88383C14.7923 2.87559 15.0747 2.79212 15.0906 2.78911C15.0979 2.78631 15.0258 2.79161 15.0535 2.78129C15.0856 2.76689 15.3684 2.70953 15.3855 2.70512C15.4065 2.69263 15.0557 2.7708 15.1111 2.74516C15.2731 2.70774 15.5374 2.65485 15.6463 2.63286C15.6195 2.63845 15.459 2.66093 15.4041 2.66996C15.4226 2.64491 15.6973 2.60867 15.6785 2.62211C15.7176 2.61105 15.6842 2.61248 15.7205 2.60161C15.7338 2.59801 15.8371 2.58949 15.8582 2.585C15.8511 2.58401 15.7516 2.58369 15.7723 2.57817C15.8121 2.56425 16.1388 2.55444 16.1668 2.55961C16.2424 2.56479 15.9766 2.57245 15.9529 2.58403C15.9613 2.58482 16.1756 2.59775 16.1805 2.60063C16.1933 2.61514 15.9427 2.60745 15.9715 2.62211C16.0333 2.62275 16.0957 2.62475 16.158 2.62797C15.9185 2.6356 15.4812 2.68042 15.3748 2.72172C15.7183 2.65122 16.0879 2.64768 16.0877 2.68559C16.0875 2.70075 15.9389 2.71545 15.9451 2.71977C15.9687 2.73139 16.1717 2.71218 16.1824 2.71391C16.1888 2.71482 16.1922 2.71601 16.1922 2.71684C16.1867 2.72291 15.8963 2.73596 15.8826 2.74321C15.8588 2.75134 15.99 2.77266 15.99 2.77934C15.9843 2.77968 15.7811 2.79958 15.8504 2.80571C15.9195 2.81023 16.0951 2.80512 16.1072 2.80668C16.1411 2.81045 15.828 2.83042 15.8201 2.83793C15.8265 2.83949 15.9831 2.84086 15.9881 2.84477C15.9822 2.84847 15.8643 2.86279 15.8182 2.87797C15.7824 2.88915 15.8882 2.88589 15.8709 2.88871C15.8585 2.8879 15.5656 2.92169 15.5525 2.92778C15.5323 2.93302 15.6005 2.93266 15.5916 2.93657C15.5781 2.9418 15.4852 2.95336 15.4978 2.95512C15.5124 2.95242 15.8724 2.94225 15.8689 2.95512C15.8603 2.96807 15.4875 2.97515 15.8426 2.99809C15.8449 2.99806 15.9242 2.98758 15.9314 2.98735C15.9844 2.99546 15.7145 3.02851 16.0467 3.00688C15.4318 3.07105 15.9713 3.03258 15.8816 3.06547C15.8473 3.07619 15.614 3.10896 15.6121 3.11235C15.6366 3.12131 15.7107 3.10122 15.7371 3.10454C15.7461 3.10604 15.5447 3.14943 15.5926 3.15141C15.6182 3.15019 15.8389 3.12146 15.8475 3.12309C15.9343 3.12365 15.8302 3.14125 15.8484 3.14555C15.8612 3.14769 15.9942 3.13865 15.9978 3.13969C15.9962 3.14101 15.8261 3.1689 15.7889 3.17973C15.761 3.18696 15.8672 3.18257 15.8475 3.18657C15.729 3.20759 15.4756 3.21968 15.7225 3.22368C15.7372 3.22386 15.8263 3.21286 15.8318 3.21293C15.8894 3.21817 15.7206 3.23656 15.6922 3.25102C15.6436 3.27346 15.8815 3.23301 15.6844 3.27055C15.8356 3.26041 15.9164 3.25141 16.0926 3.24125C15.6077 3.27986 15.4493 3.35678 15.9773 3.29594C15.8092 3.30825 15.8301 3.33209 15.7801 3.33793C15.7485 3.34002 15.5045 3.35753 15.6228 3.39067C15.6393 3.39349 15.78 3.36466 15.7381 3.38383C15.3902 3.43632 15.7314 3.3923 15.7322 3.39555C15.728 3.40472 14.8933 3.59044 14.7635 3.67778C14.6064 3.74901 14.4821 3.84367 14.449 3.86137C14.3404 3.91979 14.4237 3.85931 14.3973 3.86821C14.3667 3.8761 14.0811 4.07645 14.0652 4.08891C14.0102 4.11904 14.0465 4.07908 14.0486 4.07426C13.9691 4.10846 13.5898 4.40344 13.4871 4.49223C13.4979 4.49507 13.7061 4.32798 13.5857 4.44633C13.4496 4.58288 13.4117 4.56111 13.4051 4.56157C12.7217 5.15831 12.1456 5.89598 11.6473 6.68168C11.6736 6.6823 11.9939 6.16737 12.0076 6.1602C12.0611 6.10433 11.4996 6.95695 11.4363 7.06645C11.4892 6.98805 11.5431 6.9091 11.5984 6.83012C11.5365 6.98618 11.3215 7.27566 11.2195 7.49223C11.1871 7.56083 11.2666 7.43957 11.2674 7.44047C11.2355 7.52263 11.1627 7.63872 11.1971 7.54106C11.1128 7.73045 11.1099 7.69928 11.035 7.84086C11.0329 7.8458 11.0728 7.79525 11.0213 7.90727C10.9951 7.96228 10.8563 8.24401 10.8465 8.29204C10.843 8.31002 10.9582 8.18476 10.9285 8.14946C11.1004 7.84853 10.9613 8.04015 11.0223 7.92094C11.0325 7.90266 11.0275 7.95695 11.1766 7.65043C11.1811 7.72812 10.9778 8.05765 10.9529 8.12211C10.9009 8.24976 11.1721 7.7549 11.1961 7.64653C11.2025 7.70351 11.2181 7.61361 11.2801 7.50297C11.3485 7.38137 11.3282 7.43849 11.3641 7.37407C11.4638 7.19761 11.403 7.25917 11.5057 7.12309C11.3681 7.2318 11.6445 6.86944 11.7293 6.7686C11.6185 6.95167 11.512 7.1371 11.409 7.32621C11.4177 7.31742 11.4266 7.30866 11.4353 7.29985C11.4072 7.34859 11.3801 7.39601 11.3523 7.44536C11.3539 7.43591 11.3558 7.42613 11.3572 7.41704C11.2331 7.68556 11.1834 7.73432 11.1707 7.75688C11.0275 8.02404 10.8715 8.34678 10.7449 8.62895C10.7271 8.67012 10.7558 8.65184 10.6082 8.95317C10.5605 9.05229 10.5838 8.9524 10.5398 9.0645C10.5243 9.22391 10.4915 9.2083 10.4754 9.24809C10.4259 9.37233 10.4117 9.44365 10.406 9.45903C10.3839 9.52003 10.3502 9.60969 10.3289 9.67289L9.89531 10.9483L9.19121 9.77934C9.14285 9.70091 9.07057 9.58861 9.01933 9.51274C9.01866 9.51288 9.05367 9.5927 8.99589 9.49711C8.97471 9.46166 8.82684 9.12499 8.62285 8.877C8.66613 8.9447 8.7125 9.01863 8.75566 9.08793C8.70539 8.99958 8.29019 8.46124 8.37382 8.60454C8.42873 8.69479 8.60763 8.87135 8.5916 8.91704C8.47694 8.71763 7.68741 7.74582 7.62382 7.67289C7.61778 7.66326 7.6803 7.71625 7.66972 7.70121C7.66061 7.68762 7.47353 7.4758 7.45097 7.4434C7.43945 7.42552 7.52841 7.51478 7.52519 7.50395C7.51969 7.4911 7.29352 7.22887 7.26347 7.22172C7.32891 7.28263 7.48498 7.46804 7.38945 7.38188C7.37716 7.37061 7.32858 7.29969 7.31328 7.28618C7.17301 7.16104 7.54879 7.57183 7.60331 7.63969C7.3594 7.38538 7.01344 6.97052 6.71562 6.70121C6.61032 6.57772 6.90178 6.85478 6.78007 6.71782C6.53601 6.44677 6.68038 6.64269 6.68437 6.65336C6.60746 6.59728 6.42597 6.32316 6.38456 6.36723C6.28896 6.26954 6.32696 6.2926 6.17656 6.17289C6.19291 6.19235 6.20915 6.21191 6.22538 6.23149C6.04437 6.11575 5.75145 5.77726 5.77714 5.78911C5.86082 5.82867 6.0261 5.99702 6.04179 6.00981C6.0651 6.02836 6.17045 6.03211 6.37871 6.29008C6.50793 6.34788 6.00561 5.92937 6.24882 6.10258C6.09874 5.96543 5.46166 5.45154 5.35038 5.41508C5.33802 5.41108 5.36839 5.47664 5.21367 5.35551C5.13944 5.29792 5.33179 5.41608 5.30058 5.38579C5.25308 5.33896 4.84294 5.07116 4.38945 4.90532C3.93682 4.7284 3.46207 4.7015 3.31718 4.71098C3.29851 4.71139 3.30434 4.69823 3.28691 4.69829H3.28593C3.21365 4.6983 3.02629 4.73884 2.95488 4.75493C3.12357 4.73913 2.80271 4.82136 2.79765 4.84672C2.7481 4.87849 2.74227 4.85701 2.72245 4.87114C2.64842 4.89288 2.66468 5.22983 2.65507 5.43852C2.70309 5.41863 2.69721 5.80098 2.7664 5.99418C2.81005 6.13006 2.927 6.32881 2.87578 6.12797C2.96584 6.3825 3.08467 6.62331 3.20195 6.85844C3.21993 6.89439 3.18015 6.85161 3.21171 6.91313C3.21481 6.91879 3.23381 6.91997 3.26249 6.97368C3.50922 7.42526 3.3662 7.22078 3.40117 7.31157C3.42162 7.36239 3.43789 7.39679 3.45097 7.42289C3.30112 7.15619 3.14686 6.85521 3.10722 6.76957C3.10223 6.85441 3.41144 7.36675 3.48613 7.51469C3.48869 7.52009 3.46087 7.51225 3.46367 7.51762C3.49141 7.57418 3.70793 7.93718 3.68632 7.84965C3.67954 7.82498 3.58054 7.65509 3.47246 7.46196C3.50493 7.51161 3.5038 7.46312 3.50956 7.47075C3.57944 7.57601 3.72591 7.87642 3.7791 7.97075C3.79156 7.99308 3.80309 7.985 3.80546 7.98832C3.85545 8.07869 3.79741 8.06338 3.89042 8.13286C3.94175 8.32125 3.7025 7.83506 3.69413 7.88579C3.67879 7.92636 4.32749 8.9417 4.37187 8.92094C4.37053 8.92713 4.37583 8.94434 4.38945 8.97661C4.41847 9.04754 4.60974 9.3264 4.65019 9.37114C4.65744 9.37788 4.68987 9.35245 4.69706 9.36235C4.71701 9.39135 4.92393 9.74915 5.03398 9.86137C4.99047 9.78935 4.94683 9.71729 4.9041 9.64555C5.19403 10.0595 5.16193 9.98815 5.07402 9.84282C5.06929 9.83588 5.0658 9.82798 5.06132 9.82133C4.99347 9.7091 4.90567 9.5674 4.90703 9.56352C4.91515 9.55699 5.41323 10.2463 5.28593 10.1338C5.26513 10.1141 5.05168 9.78452 5.14238 9.96C5.15823 9.99115 5.31493 10.1959 5.32011 10.2081C5.35428 10.2918 5.00698 9.85293 5.02324 9.92485C5.12415 10.0202 5.21484 10.1716 5.31132 10.293C5.35509 10.348 5.3829 10.3497 5.38847 10.3565C5.46981 10.459 5.40824 10.4133 5.43437 10.4483C5.44984 10.4685 5.63933 10.6474 5.55742 10.6465C6.1041 11.3006 5.73446 10.8078 5.4246 10.3887C5.54054 10.5079 5.7238 10.7752 5.81523 10.8877C5.84787 10.9279 5.84705 10.8908 5.90312 10.9581C6.01749 11.0978 6.52382 11.7985 6.65996 11.9795C6.5677 11.8747 6.57289 11.9214 6.64042 12.0049C6.7077 12.0879 6.67901 11.9988 6.69413 12.0118C6.71151 12.0286 7.00772 12.4279 7.06523 12.4922C6.82054 12.2047 6.8528 12.2856 7.05156 12.5391C7.01679 12.5071 6.98113 12.4737 6.94706 12.4424C7.07323 12.5853 7.29186 12.9166 7.36796 12.9922C7.37993 13.0041 7.35861 12.9453 7.36503 12.9512C7.43069 13.0182 7.62311 13.2881 7.63749 13.294C7.65026 13.3 7.57656 13.1815 7.61601 13.2159C7.62428 13.223 7.68633 13.345 7.77421 13.4405C7.80674 13.4758 7.80468 13.4407 7.81328 13.4493C7.8845 13.5203 7.82 13.4961 7.94511 13.6387C8.0369 13.7431 8.12942 13.8011 8.24003 13.9502C7.87874 13.4514 8.19446 13.8584 8.37382 14.0508C8.4024 14.0812 8.40978 14.0324 8.55644 14.2334C8.16073 13.8696 8.62548 14.3721 8.71367 14.4756C8.71859 14.4818 8.70164 14.5001 8.74687 14.5538C8.75071 14.5581 8.75879 14.5409 8.80156 14.5889C9.20051 15.035 8.93593 14.7572 8.99687 14.8536C9.0215 14.8931 9.23956 15.1089 9.28788 15.1631C9.29942 15.1763 9.28151 15.1815 9.32597 15.2315C9.40737 15.323 9.50133 15.4028 9.55449 15.461C9.56029 15.4675 9.54181 15.4882 9.64531 15.5918C9.67677 15.6237 9.71952 15.658 9.68144 15.6026C9.57302 15.4404 9.27545 15.1684 9.14433 14.9766C9.02623 14.8044 9.4552 15.2944 9.48808 15.3311C9.49525 15.3395 9.39759 15.2493 9.48515 15.3536C9.54189 15.421 9.64711 15.5004 9.74296 15.5948C9.82758 15.5384 9.92222 15.4752 9.96269 15.4239C10.0277 15.3421 9.97309 15.3366 9.97734 15.3282C9.98483 15.3151 10.0738 15.217 10.0994 15.1768C10.1289 15.1302 10.0979 15.1391 10.1492 15.0674C10.2618 14.9066 10.296 14.938 10.3113 14.9248C10.4962 14.7592 10.3766 14.7968 10.408 14.751C10.4453 14.7001 10.9149 14.1747 10.9939 14.0498C10.963 14.1028 10.9334 14.1529 10.9012 14.2071C10.9925 14.1425 11.0269 14.0245 11.0691 14.0567C11.0172 13.9851 11.2024 13.8477 11.2449 13.792C11.2614 13.7703 11.2493 13.7624 11.2703 13.7354C11.3537 13.6287 11.5399 13.4147 11.5799 13.3526C11.7441 13.0955 11.222 13.663 11.1756 13.7139C11.2583 13.6147 11.6714 13.0654 11.4412 13.2872C11.4054 13.3218 11.381 13.4152 11.365 13.4375C11.2569 13.5882 11.321 13.4527 11.3094 13.462C11.2893 13.479 11.2406 13.5917 11.2156 13.6163C11.2079 13.6236 11.2284 13.5496 11.1131 13.6914C11.1516 13.5963 11.4758 13.2296 11.5144 13.169C11.5254 13.1501 11.3875 13.221 11.7019 12.9248C11.6945 12.9249 11.687 12.9248 11.6795 12.9248C11.8228 12.7386 11.9714 12.5429 12.115 12.3526C12.1104 12.3818 12.0519 12.5048 12.1492 12.3692C12.2053 12.2907 12.1369 12.3268 12.1414 12.3194C12.1893 12.2495 13.1307 11.0174 13.2967 10.7725C13.3556 10.6895 13.4998 10.4435 13.5115 10.4258C13.5846 10.3195 13.859 9.95697 13.907 9.87993C13.9373 9.83187 13.885 9.86033 13.9148 9.81938C13.9424 9.78181 13.9363 9.83706 13.9451 9.82621C14.0214 9.73671 14.4797 8.99043 14.6102 8.83012C14.5374 8.93194 14.2307 9.49117 14.2527 9.49028C14.2612 9.48391 14.3589 9.37302 14.368 9.34184C14.4162 9.31188 14.4583 9.11982 14.5232 9.04594C14.5306 9.03758 14.5399 9.0963 14.6414 8.95414C14.6765 8.90481 14.7354 8.7577 14.8494 8.6436C14.9671 8.43969 15.6196 7.44556 15.6131 7.35161C15.6092 7.35316 15.5179 7.48662 15.5574 7.37993C15.6102 7.23575 15.6141 7.39414 15.7049 7.24418C15.7224 7.2175 15.9326 6.8048 15.9373 6.78129C15.9625 6.63228 15.7588 6.98665 15.7537 6.98246C15.7491 6.96449 15.8973 6.65925 15.908 6.64262C15.9172 6.63195 15.8443 6.91337 15.9764 6.59868C15.9528 6.62987 15.9281 6.66093 15.9041 6.69243C15.9632 6.54312 16.006 6.54975 16.0252 6.51664C16.0848 6.4126 16.0774 6.28041 16.2283 6.13774C16.2678 6.10111 16.2552 6.18596 16.2605 6.18168C16.3111 6.13836 16.2724 6.03732 16.3582 5.98051C16.3638 5.97709 16.3191 6.175 16.4529 5.85161C16.439 5.87143 16.4251 5.89212 16.4109 5.91215C16.4187 5.86646 16.5417 5.52275 16.5555 5.48442C16.6057 5.36257 16.6075 5.48366 16.6434 5.35844C16.5679 5.42371 16.6761 5.0342 16.7107 5.07329C16.6692 5.00963 16.777 4.70971 16.781 4.60551C16.7901 4.52287 16.7599 4.40796 16.7596 4.39653C16.7613 4.37997 16.8022 4.37885 16.8064 4.3477C16.8084 4.33315 16.7597 4.27491 16.7957 4.2686C16.8033 4.2668 16.8599 4.22946 16.8777 4.22172C16.909 4.20829 16.8795 4.28271 16.9178 4.27543C16.9591 4.25629 16.9081 4.19789 16.908 4.19829C16.9073 4.16347 16.9505 4.13805 16.9637 4.1309C16.9887 4.1059 16.9453 4.07407 16.9412 4.06938C16.9395 4.05174 16.9924 4.05288 17.0066 4.03813C17.0287 4.01838 16.9887 3.93464 17.0076 3.93559C17.0436 3.93994 17.0714 4.01203 17.074 4.01664C17.1297 4.0357 17.1293 3.94095 17.1199 3.89555C17.1196 3.88289 17.157 3.89242 17.1531 3.88579C17.086 3.78217 17.0821 3.9425 17.0262 3.89653C16.9716 3.85806 17.0606 3.8629 17.0682 3.86137C17.0691 3.85737 16.9887 3.81125 16.9754 3.79106C16.9839 3.77676 17.2278 3.83254 17.243 3.81059C17.1746 3.7607 17.1071 3.72874 17.0086 3.69536C17.0236 3.6476 17.1334 3.74063 17.1414 3.74321C17.1688 3.74832 17.1198 3.69089 17.1277 3.67875C17.1339 3.67037 17.2326 3.68992 17.1658 3.63383C17.1429 3.61554 17.0631 3.60779 16.9646 3.53911C17.372 3.6653 17.1213 3.52774 17.1101 3.502C17.1033 3.48011 17.3309 3.53974 17.0711 3.43168C17.0935 3.34115 17.0886 3.40448 17.1707 3.42387C17.2637 3.4524 17.095 3.31071 17.3758 3.51274C17.3969 3.46271 17.1268 3.32177 17.1062 3.31938C17.095 3.31119 17.1668 3.3168 17.1463 3.30082C16.9077 3.12616 17.0777 3.22812 17.0135 3.15043C17.0123 3.14107 16.7166 3.05291 16.9461 3.0977C17.3411 3.18677 17.4517 3.37324 17.5838 3.30571C17.3603 3.04666 16.9359 3.03149 16.8416 3.01762C16.6879 2.99132 16.8507 2.99399 16.8348 2.98344C16.8269 2.97861 16.6979 2.95925 16.7 2.95805C16.6614 2.90266 16.8046 2.91544 16.9881 2.9727C17.1597 3.02421 17.3594 3.13503 17.4539 3.18559C17.4129 3.14337 17.3669 3.10273 17.3172 3.06352C17.3935 3.09769 17.465 3.13665 17.531 3.17973C17.2135 2.96225 17.5295 3.15228 17.6521 3.15141C17.68 3.14958 17.4471 3.01703 17.7244 3.1602C17.5462 3.01149 17.6168 3.03972 17.4197 2.95903C17.4432 2.92058 17.8798 3.14641 18.0105 3.32329C17.7892 3.03216 17.6854 3.02745 17.6326 3.00493C17.5708 2.98974 17.529 2.95938 17.2703 2.82231C17.1622 2.82387 17.4102 2.913 17.3904 2.91508C17.2968 2.89833 17.1602 2.80094 16.9275 2.83598C16.8917 2.84312 17.0252 2.91325 16.8133 2.86918C16.7825 2.86274 16.675 2.81046 16.6736 2.80766C16.6937 2.78073 16.8123 2.80987 16.826 2.80082C16.8276 2.78888 16.6899 2.77393 16.6902 2.77153C16.6919 2.73569 16.8026 2.77438 16.7898 2.76176C16.7677 2.73306 16.2401 2.57766 16.9363 2.70903C16.3498 2.65697 16.8407 2.71429 17.0867 2.77055C17.1452 2.78341 17.1667 2.76721 17.2488 2.78813C17.347 2.81136 17.4903 2.88998 17.5418 2.91606C17.6 2.9497 17.2989 2.69842 17.7615 3.01274C17.6677 2.90806 17.4809 2.80134 17.2996 2.73832C17.1323 2.67791 16.9492 2.64049 16.8143 2.60063C16.5848 2.53104 16.6686 2.52023 16.824 2.53032C17.0106 2.54408 17.2558 2.6131 17.3006 2.62797C17.3253 2.63466 17.2544 2.57947 17.2703 2.58305C17.2846 2.56509 17.8273 2.84705 17.8699 2.88188C17.9324 2.89617 17.6922 2.75609 17.6853 2.72954C17.6888 2.67468 18.3076 3.16991 17.99 2.87407C17.7743 2.65918 17.2721 2.53677 17.2342 2.45903ZM10.3016 16.4678L10.3289 16.4688C10.3259 16.4599 10.3336 16.4601 10.3406 16.459L10.2977 16.4581C10.2992 16.461 10.2996 16.4646 10.3016 16.4678ZM9.14921 16.46H9.18242C9.18491 16.4572 9.1876 16.4534 9.19121 16.4493H9.15996C9.15149 16.4575 9.14927 16.4612 9.14921 16.46ZM10.2781 16.4112C10.2829 16.421 10.2851 16.4299 10.2908 16.4454L10.3543 16.4463C10.3523 16.4501 10.3337 16.4348 10.3269 16.4268C10.3225 16.4212 10.3196 16.4157 10.3172 16.4112H10.2781ZM9.18828 16.4219C9.1822 16.4283 9.17614 16.433 9.17167 16.4375H9.20195C9.21052 16.4277 9.22076 16.4157 9.23222 16.4024H9.20585C9.19856 16.4101 9.19329 16.4169 9.18828 16.4219ZM9.1248 16.4375H9.14335C9.14788 16.4275 9.15435 16.4132 9.16093 16.4014H9.14824C9.13543 16.418 9.11853 16.4396 9.1248 16.4375ZM12.0838 16.084C12.0747 16.072 11.8983 16.2546 11.9021 16.2881C11.9326 16.2526 12.086 16.095 12.0838 16.084ZM9.11796 15.0801C9.08936 15.077 9.24193 15.2433 9.24394 15.2481C9.24786 15.2571 9.22868 15.3175 9.24003 15.334C9.25669 15.3573 9.44283 15.5758 9.5789 15.7383C9.58593 15.7306 9.59228 15.7244 9.59648 15.7198C9.61017 15.718 9.60398 15.7299 9.58867 15.75C9.59833 15.7616 9.60703 15.7734 9.61601 15.7842C9.62322 15.772 9.62848 15.7606 9.63163 15.7491C9.60868 15.7173 9.59396 15.7068 9.58183 15.7032C9.55878 15.723 9.55784 15.7165 9.56718 15.6973C9.56355 15.6968 9.56064 15.6979 9.55839 15.6954C9.52676 15.6579 9.47448 15.5643 9.40996 15.4961C9.473 15.5568 9.52567 15.6051 9.58769 15.6641C9.58968 15.6614 9.59238 15.6591 9.59453 15.6563C9.46754 15.4962 9.13836 15.0872 9.11796 15.0801ZM9.60624 15.6817C9.61435 15.6894 9.62313 15.6969 9.63163 15.7051C9.62827 15.6979 9.62312 15.6907 9.61601 15.6846V15.6836C9.61423 15.6814 9.61208 15.6792 9.61015 15.6768C9.60878 15.6783 9.60772 15.6801 9.60624 15.6817ZM10.0877 15.001C10.096 14.9942 10.2364 14.7857 10.2098 14.8926L10.1853 14.9317C10.1467 14.9831 10.0736 15.0617 10.0457 15.0879C10.0401 15.093 10.0333 15.0452 9.97929 15.1133C9.93747 15.1666 10.0303 15.1138 9.94023 15.211C9.85067 15.3074 9.94491 15.1559 9.93632 15.1631C9.92317 15.175 9.80606 15.3382 9.79472 15.3184C9.78605 15.3046 9.93136 15.1495 9.9666 15.1026C10.0099 15.0446 9.93351 15.0944 10.0164 15.0049C10.0693 14.9477 10.0756 15.0114 10.0877 15.001ZM10.5574 14.753C10.5248 14.7803 10.3548 15.0075 10.4256 14.9454C10.4868 14.8919 10.6083 14.7115 10.5574 14.753ZM10.5721 14.6543C10.5552 14.6724 10.2926 14.9663 10.365 14.9209C10.3926 14.9027 10.8448 14.369 10.5721 14.6543ZM9.02324 14.8067C8.97049 14.7101 9.20463 14.9882 9.10722 14.9063C9.10276 14.9023 9.02854 14.8142 9.02324 14.8067ZM8.76249 14.6426C8.7856 14.7016 8.89204 14.8235 8.87675 14.7735C8.87544 14.769 8.79036 14.6517 8.76249 14.6426ZM10.699 14.75C10.6995 14.7707 10.7409 14.7109 10.7781 14.6758V14.6768C10.8202 14.6373 10.9278 14.5236 10.9803 14.4219C10.8839 14.5348 10.7901 14.6444 10.699 14.75ZM10.7625 14.2129C10.7422 14.2788 10.6074 14.4135 10.5428 14.4854C10.5645 14.426 10.6986 14.2778 10.7625 14.2129ZM8.55937 14.3653C8.53921 14.3231 8.43714 14.2407 8.47246 14.3106C8.49878 14.346 8.55807 14.3685 8.55937 14.3653ZM11.0994 14.2461C11.2426 14.1556 11.1419 14.1723 11.0389 14.2706C11.0298 14.3188 11.076 14.261 11.0994 14.2461ZM8.24394 14.0831C8.25287 14.0962 8.41098 14.2951 8.41972 14.2842C8.38539 14.2277 8.16374 13.9595 8.24394 14.0831ZM10.9978 14.127C10.9752 14.1448 10.8849 14.2664 10.8953 14.2745C10.9208 14.2781 11.0343 14.099 10.9978 14.127ZM10.8719 13.9786C10.8424 14.0291 10.8673 14.0524 10.8211 14.1026C10.6731 14.2641 10.7684 14.1223 10.8719 13.9786ZM11.2107 14.1651C11.3449 14.0655 11.3115 13.9879 11.2332 14.0831C11.2027 14.1201 11.1917 14.179 11.2107 14.1651ZM8.12968 13.8653C8.16007 13.9331 8.30838 14.0713 8.28105 14.0264C8.25924 13.9922 8.09996 13.7985 8.12968 13.8653ZM11.0809 13.709C11.1423 13.6725 11.0079 13.8225 11.0066 13.8262C11.0062 13.8343 11.1473 13.7942 10.9158 13.9893C10.8821 14.0177 10.962 13.8849 10.9519 13.8916C10.9267 13.9132 10.9078 13.9316 10.8943 13.9473C10.9766 13.8349 11.0677 13.7169 11.0809 13.709ZM11.3894 13.8204C11.4065 13.7709 11.2433 13.9562 11.2361 13.9688C11.1917 14.0465 11.3551 13.9178 11.3894 13.8204ZM8.03105 13.7706C7.91918 13.6771 8.11223 13.8993 8.17753 13.9756C8.19341 13.9709 8.03922 13.7777 8.03105 13.7706ZM11.1502 13.7442C11.167 13.7486 11.0203 13.9528 10.9803 13.9405C11.0156 13.9016 11.1384 13.7431 11.1502 13.7442ZM11.7215 13.4991C11.6972 13.5133 11.5477 13.7395 11.5389 13.7471C11.525 13.7596 11.5538 13.6744 11.4695 13.7881C11.4833 13.7878 11.453 13.8717 11.4646 13.8633C11.5034 13.8316 11.7874 13.4629 11.7215 13.4991ZM11.4988 13.6817C11.5041 13.6716 11.4212 13.7063 11.4021 13.7569C11.3881 13.7953 11.4747 13.7222 11.4988 13.6817ZM7.51542 13.0381C7.58935 13.0881 7.89462 13.4881 7.83183 13.4473C7.78196 13.4155 7.55615 13.1168 7.51542 13.0381ZM11.825 12.8096C11.8027 12.8033 11.6317 13.0529 11.5779 13.1055C11.5741 13.1723 11.7102 12.9452 11.7469 12.9131L11.7371 12.9854C11.739 13.0049 11.7597 12.9867 11.8406 12.8321C11.7211 12.968 11.8293 12.8162 11.825 12.8096ZM11.8689 12.7627C11.9607 12.641 11.8469 12.6911 11.8074 12.7803C11.8055 12.7857 11.8623 12.7707 11.8689 12.7627ZM7.13554 12.5186C7.16953 12.5666 7.28111 12.6908 7.26249 12.6924C7.20263 12.6237 7.13745 12.5565 7.13554 12.5186ZM7.00956 12.5801C6.97702 12.5295 6.98198 12.5033 6.96074 12.4844C6.95336 12.4786 6.93719 12.4882 6.91386 12.4668C6.945 12.5036 6.97772 12.5426 7.00956 12.5801ZM15.5935 11.8887C15.5714 11.9671 15.3351 12.2132 15.3621 12.1582C15.3703 12.1439 15.5973 11.8574 15.5935 11.8887ZM6.5164 11.8555C6.45509 11.7597 6.31536 11.6018 6.36308 11.6895C6.37352 11.7087 6.5035 11.8555 6.5164 11.8555ZM12.6619 11.6875C12.5975 11.7425 12.5247 11.8747 12.5682 11.8379C12.5791 11.8279 12.6759 11.6923 12.6619 11.6875ZM4.12285 11.3946C4.20827 11.5127 4.35656 11.5952 4.24394 11.4532C4.2315 11.438 4.1226 11.3757 4.12285 11.3946ZM6.24003 11.5137C6.20675 11.46 6.07508 11.2968 6.12089 11.378C6.14069 11.4131 6.22107 11.5105 6.24003 11.5137ZM13.6004 10.3838C13.5635 10.4524 13.2945 10.7965 13.3025 10.8096C13.3133 10.8232 13.5992 10.4238 13.6004 10.3838ZM3.32597 10.2325C3.33292 10.248 3.29329 10.2662 3.29863 10.2832C3.30122 10.2918 3.46387 10.5141 3.48027 10.5459C3.48486 10.5551 3.48777 10.563 3.49003 10.5684C3.47883 10.5264 3.61326 10.733 3.59648 10.7354C3.58822 10.7336 3.5023 10.5965 3.49687 10.586C3.49585 10.5836 3.49471 10.5811 3.49394 10.5791C3.49748 10.6165 3.1859 10.1301 3.2332 10.2491C3.13198 10.1145 3.27609 10.2484 3.19804 10.1495C3.17153 10.1157 3.10584 10.1085 3.00956 9.90434V9.90336C2.98204 9.8447 3.02968 9.89978 3.02812 9.88871C3.02783 9.88498 2.93938 9.69208 3.03398 9.83793C3.17565 10.0547 3.01528 9.87962 3.08769 9.99711C3.09865 10.0144 3.25695 10.2161 3.25566 10.2022C3.25537 10.2005 3.20875 10.1365 3.2039 10.1241C3.18563 10.0776 3.21049 10.0891 3.20781 10.0831C3.19697 10.0635 2.95606 9.72637 2.94316 9.65922C2.93934 9.64174 3.31093 10.2049 3.32597 10.2325ZM3.4539 10.3389C3.49694 10.4583 3.6092 10.6258 3.61308 10.5635C3.48712 10.3754 3.60174 10.6071 3.4539 10.3389ZM5.31425 10.1729C5.25622 10.0562 5.51225 10.4198 5.41288 10.3135C5.40794 10.3082 5.31806 10.18 5.31425 10.1729ZM3.0916 9.68071C3.01141 9.58321 3.1472 9.84274 3.18535 9.87797C3.20318 9.89361 3.12689 9.72407 3.0916 9.68071ZM9.23808 9.70121C9.19229 9.6205 9.184 9.64251 9.1873 9.64946C9.21794 9.70857 9.28918 9.79295 9.23808 9.70121ZM2.20781 8.4268C2.21465 8.43749 2.29156 8.61483 2.33671 8.6934C2.47217 8.92879 2.46055 8.85763 2.46855 8.87114C2.47759 8.8861 2.54875 9.04547 2.59745 9.12797C2.72073 9.33647 2.78274 9.41404 2.93535 9.70219C2.82509 9.55106 2.84812 9.6562 2.75078 9.47368C2.76341 9.48609 2.77618 9.49838 2.78886 9.51079C2.63106 9.26862 2.47139 8.94841 2.31132 8.65434C2.26907 8.57673 2.29404 8.67986 2.24492 8.57329C2.2055 8.4875 2.1793 8.38486 2.20781 8.4268ZM4.69902 9.28422C4.72045 9.29469 4.88637 9.51149 4.87773 9.53325C4.86565 9.56441 4.72529 9.32776 4.69902 9.28422ZM8.93046 9.40629C8.5786 8.91242 8.57794 8.82053 8.8748 9.28618C8.8786 9.29227 8.95668 9.43547 8.93046 9.40629ZM14.368 9.34184C14.36 9.34684 14.3521 9.34787 14.3435 9.34282C14.365 9.33011 14.3709 9.33178 14.368 9.34184ZM7.86015 7.87211C7.89065 7.90753 7.87395 7.8621 7.90703 7.90239C8.01684 8.03672 8.10139 8.16216 8.19999 8.28911C8.20885 8.30046 8.14954 8.20576 8.22441 8.30278C8.23463 8.31606 8.29587 8.42171 8.38456 8.53618C8.62098 8.77162 8.72139 8.99267 8.96953 9.32914C8.96086 9.30683 8.80215 9.05297 8.78984 9.0352C8.59777 8.74211 8.22532 8.24286 7.99492 7.96C7.93605 7.88697 7.95614 7.92848 7.93046 7.8975C7.91011 7.87302 7.94864 7.88863 7.87675 7.81254C7.84244 7.77628 7.92245 7.9068 7.89824 7.88383C7.88238 7.86831 7.81725 7.77665 7.78886 7.75297C7.78277 7.74956 7.83917 7.84769 7.86015 7.87211ZM4.25761 8.72563C4.08701 8.41684 5.02507 9.85016 4.43925 9.04789C4.47249 9.08159 4.50627 9.11571 4.53984 9.14946C4.47643 9.04196 4.38927 8.91525 4.37382 8.91801C4.37416 8.91445 4.37236 8.90805 4.36894 8.89848C4.3651 8.88831 4.28524 8.77788 4.25761 8.72563ZM9.15214 9.24028C9.15059 9.2444 9.14979 9.24882 9.14824 9.25297L9.158 9.25102C9.1596 9.2469 9.16229 9.24328 9.16386 9.2393L9.15214 9.24028ZM10.2547 9.13676C10.2569 9.14073 10.2593 9.14458 10.2615 9.14848L10.2732 9.1475C10.2708 9.14334 10.2679 9.13898 10.2654 9.13481L10.2547 9.13676ZM8.28691 8.42778C8.27357 8.42942 8.40081 8.58603 8.42265 8.59672C8.39628 8.56057 8.29298 8.42972 8.28691 8.42778ZM10.7732 8.38383C10.7807 8.34612 10.6981 8.5186 10.6795 8.57231C10.6822 8.59269 10.773 8.38659 10.7732 8.38383ZM10.741 8.53227C10.7419 8.54646 10.8345 8.35597 10.8299 8.33891C10.8094 8.38338 10.7418 8.51714 10.741 8.53227ZM8.14921 8.25981C8.24188 8.41197 8.13836 8.24626 8.1248 8.26274C8.19723 8.35565 8.38099 8.60202 8.27128 8.42289C8.24911 8.38699 8.18285 8.3051 8.14921 8.25981ZM14.9939 8.24321C15.0783 8.13868 15.0831 8.26455 15.0008 8.34282C14.9903 8.35175 14.88 8.38406 14.9939 8.24321ZM2.17753 8.13286C2.18278 8.14717 2.26836 8.30509 2.27519 8.29496C2.24915 8.23266 2.14202 8.03924 2.17753 8.13286ZM11.4432 7.00688C11.4053 7.05866 11.3092 7.25266 11.2986 7.29887C11.2923 7.305 11.2785 7.32396 11.2547 7.35844C11.2046 7.40032 10.4396 8.93872 10.9744 7.91411C10.9909 7.88348 10.9579 7.92081 11.0262 7.79301C11.0308 7.78447 11.0421 7.7843 11.0564 7.75786C11.09 7.6936 11.2682 7.37685 11.2986 7.30961C11.3005 7.30996 11.3042 7.3066 11.3103 7.29887C11.3654 7.22785 11.4732 6.96408 11.4432 7.00688ZM9.62187 8.16606C9.6302 8.17878 9.63888 8.19134 9.64726 8.20414C9.65326 8.19169 9.65978 8.17948 9.66581 8.16704C9.65564 8.16004 9.64088 8.14964 9.63261 8.14262C9.629 8.15042 9.62547 8.15825 9.62187 8.16606ZM8.00761 8.11137C8.03943 8.14977 8.11176 8.20283 8.05156 8.12309C8.03445 8.11254 7.93702 8.0256 8.00761 8.11137ZM9.61113 8.14946C9.61421 8.14317 9.61781 8.13716 9.62089 8.1309C9.552 8.04039 9.54936 7.99549 9.54374 7.98539C9.52192 7.95188 9.49051 7.92381 9.46953 7.89262C9.43493 7.84117 9.42256 7.80808 9.37773 7.74321C9.34642 7.69806 9.36292 7.7517 9.33281 7.70805C9.32187 7.69166 9.22947 7.49422 9.18535 7.50395C9.19391 7.51502 9.3905 7.81261 9.61113 8.14946ZM7.57304 7.5684C7.61297 7.60349 8.07795 8.19406 7.99296 8.05766C7.9817 8.03361 7.56983 7.51956 7.57304 7.5684ZM15.2644 7.84965C15.2751 7.87408 15.1938 7.98863 15.159 8.03618C15.1448 8.02327 15.2375 7.90016 15.2644 7.84965ZM9.22734 7.6143C9.23921 7.63294 9.38483 7.83761 9.39531 7.835C9.35712 7.7726 9.16156 7.50406 9.22734 7.6143ZM7.68339 7.73539C7.70913 7.77854 7.79796 7.85894 7.76152 7.79594C7.7223 7.74594 7.67785 7.72591 7.68339 7.73539ZM7.41777 7.25786C7.40603 7.24057 7.20799 7.04605 7.27421 7.13969C7.3201 7.20445 7.34369 7.20115 7.35624 7.21489C7.37216 7.23134 7.64478 7.57576 7.41777 7.25786ZM11.5018 7.04204C11.4986 7.06401 11.3405 7.31981 11.3279 7.32914C11.3839 7.22845 11.4441 7.1299 11.5018 7.04204ZM15.7195 7.05473C15.7175 7.06059 15.6633 7.15571 15.659 7.16118C15.5862 7.23661 15.7534 6.93984 15.7195 7.05473ZM6.92656 6.88774C6.90505 6.88142 7.05098 7.02619 7.0789 7.03618C7.04157 6.99372 6.94526 6.89415 6.92656 6.88774ZM11.5574 6.8311C11.5496 6.84159 11.4489 6.99874 11.4725 6.98246C11.5066 6.95801 11.5914 6.78769 11.5574 6.8311ZM1.4871 6.55961C1.47421 6.56811 1.5526 6.77521 1.55253 6.74614C1.55136 6.73543 1.49632 6.55262 1.4871 6.55961ZM11.7791 6.54106C11.7904 6.52789 11.867 6.51285 11.7518 6.65239C11.7313 6.67754 11.788 6.56404 11.6658 6.74516C11.7535 6.60818 11.7125 6.62131 11.7791 6.54106ZM6.47343 6.4102C6.50841 6.44658 6.83274 6.75704 6.73124 6.63481C6.71519 6.61338 6.36252 6.28331 6.47343 6.4102ZM10.948 5.9102C10.9843 5.88411 10.8021 6.13739 10.7957 6.14653C10.7361 6.21859 10.8887 5.97494 10.948 5.9102ZM16.2947 5.9102C16.3122 5.91551 16.2393 6.08975 16.2312 6.10063C16.1896 6.15372 16.2482 5.96607 16.2947 5.9102ZM7.74296 5.68754C7.75954 5.68684 7.88806 5.83829 7.9373 5.88969C7.92085 5.8891 7.79378 5.73748 7.74296 5.68754ZM1.15703 5.54204C1.15913 5.40204 1.24584 6.08468 1.18046 5.77055C1.17594 5.7546 1.15579 5.55468 1.15703 5.54204ZM5.49003 5.65043C5.46147 5.59808 5.61017 5.69574 5.69804 5.77543C5.71809 5.79335 5.78071 5.87403 5.6873 5.81059C5.70903 5.78657 5.57717 5.67399 5.49003 5.65043ZM16.4334 5.48051C16.4071 5.57264 16.3781 5.66822 16.3455 5.76567C16.3373 5.6976 16.4137 5.56388 16.4334 5.48051ZM16.6316 5.51567C16.5917 5.53229 16.5659 5.67935 16.5252 5.76079C16.5737 5.73536 16.6025 5.59495 16.6316 5.51567ZM12.4451 5.71196C12.5401 5.55503 12.592 5.55772 12.5828 5.57036C12.474 5.72885 12.527 5.62037 12.5252 5.61821C12.5146 5.62718 12.4368 5.74592 12.4451 5.71196ZM16.575 5.52055C16.5719 5.52376 16.5091 5.70196 16.5223 5.71098C16.5552 5.63186 16.6181 5.48513 16.575 5.52055ZM16.7127 5.44145C16.6819 5.45484 16.6338 5.61431 16.6111 5.68266C16.6527 5.66455 16.6807 5.51536 16.7127 5.44145ZM5.41581 5.52543C5.45692 5.53457 5.55799 5.60935 5.6248 5.65922C5.60339 5.65695 5.46574 5.5568 5.41581 5.52543ZM1.10624 5.14946C1.12135 5.06604 1.11383 5.19096 1.11796 5.33891C1.12028 5.46992 1.13503 5.62489 1.14042 5.6436C1.11393 5.68203 1.0891 5.2094 1.10624 5.14946ZM2.70683 5.35747C2.7176 5.38382 2.75822 5.59254 2.75468 5.627C2.72976 5.55135 2.71599 5.43435 2.70683 5.35747ZM5.15703 5.40825C4.82981 5.24004 4.95157 5.19458 5.35038 5.48051C5.33555 5.4754 5.32027 5.47082 5.30546 5.46586C5.76788 5.79159 5.33515 5.4875 5.21464 5.42192C5.16945 5.39628 5.19883 5.43059 5.158 5.40825H5.15703ZM16.3943 5.35649C16.3901 5.38176 16.347 5.47969 16.3318 5.52543C16.3163 5.45927 16.4105 5.26523 16.3943 5.35649ZM16.4344 5.47758L16.4334 5.48051C16.4339 5.47862 16.4338 5.47654 16.4344 5.47465V5.47758ZM2.67851 5.17387C2.68738 5.18395 2.69619 5.33217 2.68925 5.35356C2.67671 5.30881 2.67841 5.22551 2.67851 5.17387ZM16.7303 5.11821C16.6956 5.15489 16.6629 5.36996 16.6824 5.33891C16.6911 5.32528 16.7511 5.09655 16.7303 5.11821ZM12.743 5.2393C12.7621 5.22387 12.7186 5.28727 12.6912 5.31645C12.6424 5.36832 12.6811 5.2897 12.743 5.2393ZM4.74785 5.16313C4.76743 5.17013 4.89599 5.24956 4.94609 5.27543C4.86782 5.25409 4.62303 5.116 4.74785 5.16313ZM11.7967 4.94731C11.785 4.95804 11.5879 5.18567 11.5906 5.19633C11.6195 5.16224 11.9091 4.82898 11.7967 4.94731ZM11.8846 4.98247C11.8392 5.03621 11.7079 5.17938 11.7088 5.19438C11.7522 5.13865 11.8835 4.99776 11.8846 4.98247ZM11.8807 4.81157C11.8782 4.8155 11.9331 4.77514 11.8387 4.87895C11.8309 4.88789 11.8022 4.893 11.6912 5.03325C11.6686 5.06187 11.6413 5.11275 11.6443 5.11039C11.7809 4.98216 12.1225 4.53176 11.8807 4.81157ZM4.41484 5.0186C4.50999 5.05673 4.39582 5.04063 4.34941 5.01274C4.33215 5.00221 4.39056 5.00907 4.41484 5.0186ZM13.198 4.88872C13.2926 4.81288 12.9917 5.10889 13.0809 5.00395C13.0854 4.99803 13.193 4.89225 13.198 4.88872ZM3.91581 4.86332C3.61351 4.73525 4.2095 4.89831 4.38652 4.97368C4.20912 4.93428 3.99293 4.86593 4.28105 4.98637C3.84875 4.85544 4.03268 4.8938 4.01738 4.88383C3.99749 4.87605 3.92847 4.86871 3.91581 4.86332ZM6.76152 4.70317C6.82559 4.73286 6.96831 4.86543 7.06035 4.94829C7.00899 4.92186 6.84355 4.77049 6.76152 4.70317ZM4.19999 4.87309C4.24101 4.88072 4.32695 4.92686 4.29277 4.92485C4.24825 4.92171 4.19043 4.87185 4.19999 4.87309ZM13.7215 4.44047C13.717 4.44331 13.7132 4.446 13.7107 4.44731C13.6777 4.47993 13.2797 4.81525 13.2586 4.83793C13.1325 4.92961 13.6631 4.45996 13.6883 4.45512C13.6975 4.44955 13.704 4.44597 13.7078 4.44438C13.7252 4.42407 13.8291 4.34376 13.8494 4.34379C13.8171 4.36633 13.7338 4.43207 13.7215 4.44047ZM3.58671 4.76957C3.48674 4.73434 3.90455 4.76098 3.99199 4.80571C3.97816 4.81111 3.59969 4.76661 3.58671 4.76957ZM6.68632 4.77739C6.70646 4.76834 6.43662 4.56773 6.53105 4.66215C6.55504 4.68547 6.68024 4.78003 6.68632 4.77739ZM13.3621 4.61625C13.3353 4.65822 13.3124 4.67949 13.2117 4.76957C13.3557 4.63039 13.2114 4.74708 13.3621 4.61625ZM12.8562 3.93266C12.8136 3.9497 12.1854 4.54675 12.115 4.64457C12.1928 4.55662 12.8188 3.97105 12.8543 3.95122C12.8618 3.94318 12.8605 3.93002 12.8562 3.93266ZM17.0193 4.36039C17.0066 4.3363 16.9778 4.43152 17.0018 4.44829C17.0182 4.45598 17.0286 4.37524 17.0193 4.36039ZM12.6307 4.3145C12.5667 4.35398 12.5315 4.43725 12.618 4.35649C12.6438 4.33247 12.6375 4.31044 12.6307 4.3145ZM12.5633 4.07036C12.5118 4.13187 12.3473 4.28028 12.2586 4.37211C12.2365 4.3697 12.4949 4.13268 12.5633 4.07036ZM18.9412 3.5977C18.8617 3.32537 18.435 2.37887 18.95 3.33891H18.949C19.0437 3.59833 18.9578 3.44741 18.9627 3.46C19.0918 3.99186 19.0801 3.83328 19.1101 3.91508C19.1486 4.07982 19.0858 4.08201 19.1248 4.3311C19.0575 3.89866 19.1017 4.30073 19.076 4.30766C18.9912 4.38028 19.0789 3.70657 18.9363 3.45122C18.924 3.4189 18.9779 3.68132 18.9412 3.5977ZM19.1385 3.92485C19.1687 3.84763 19.2097 4.26061 19.1971 4.29594C19.1969 4.318 19.1101 4.02353 19.1385 3.92485ZM6.03496 4.14457C6.04687 4.15126 6.18981 4.25061 6.19511 4.2559C6.30639 4.35293 5.89034 4.06463 6.03496 4.14457ZM14.283 4.03618C14.2898 4.03472 14.1257 4.16227 14.0467 4.21098C13.8957 4.29942 14.2675 4.03803 14.283 4.03618ZM13.2644 3.835C13.2056 3.87542 13.0365 4.00402 13.0144 4.0352C13.0736 3.983 13.2457 3.86005 13.2644 3.835ZM13.9344 3.26762C13.7962 3.34406 13.6621 3.42674 13.531 3.51372C13.6782 3.45891 13.4053 3.6227 13.3016 3.66508C13.2695 3.69675 13.2379 3.72965 13.2068 3.76176C13.1222 3.7716 13.1411 3.84187 13.0066 3.90336C12.8881 4.06082 13.4248 3.57954 13.5291 3.57524C12.8842 4.01351 13.9809 3.32346 13.492 3.57329C13.8837 3.34859 13.6134 3.48579 13.6668 3.44145C13.725 3.39305 13.9527 3.27429 13.9344 3.26762ZM5.16972 3.6934C5.15657 3.65924 5.44348 3.8201 5.53984 3.87309C5.55154 3.90489 5.27479 3.73646 5.16972 3.6934ZM13.823 3.25493C13.7228 3.33472 13.6263 3.37409 13.4842 3.46782C13.4465 3.49298 13.4609 3.49344 13.4568 3.49614C13.3919 3.53997 13.4348 3.49928 13.3943 3.52641C13.3596 3.54126 12.8658 3.93264 12.9285 3.86821C12.9631 3.80853 13.6893 3.31061 13.823 3.25493ZM4.97343 3.72661C5.03941 3.76945 5.15188 3.78706 5.09355 3.74711C5.02889 3.71551 4.96649 3.72211 4.97343 3.72661ZM14.7576 3.7061C14.7488 3.69026 15.0585 3.5777 15.1355 3.55375C15.0566 3.58963 14.8732 3.65697 14.7576 3.7061ZM17.3641 3.42582C17.4062 3.48229 17.4469 3.54591 17.4754 3.60844C17.5514 3.60575 17.466 3.54624 17.4451 3.51664C17.4267 3.48888 17.4304 3.44929 17.3641 3.42582ZM4.59257 3.45707C4.61499 3.45191 4.82685 3.53119 4.89824 3.55864C4.84598 3.55369 4.69702 3.49235 4.59257 3.45707ZM4.49101 3.54887C4.32902 3.47655 4.32785 3.5201 4.45097 3.55571C4.49291 3.56833 4.49554 3.55198 4.49101 3.54887ZM13.9666 3.30961C13.951 3.31433 13.6635 3.48897 13.6844 3.48637C13.7222 3.46192 14.1412 3.225 13.9666 3.30961ZM3.26835 3.35258C3.14078 3.3521 2.95837 3.36499 2.92265 3.37993C3.00202 3.3684 3.16797 3.36538 3.26835 3.3643C3.31686 3.36329 3.34701 3.36109 3.33671 3.35258C3.31864 3.35283 3.29494 3.3524 3.26835 3.35258ZM18.5066 3.01567C18.3989 2.83634 18.6915 3.22307 18.7273 3.35844C18.7176 3.35506 18.5238 3.02609 18.5066 3.01567ZM3.2664 3.21879C3.84932 3.22255 4.06894 3.30954 4.0457 3.30473C4.01918 3.31009 3.747 3.24459 3.2664 3.23735C3.16093 3.23676 3.04932 3.24002 2.93242 3.25004C2.92874 3.23468 2.92465 3.23864 3.02812 3.22954C3.11134 3.22273 3.19105 3.21958 3.2664 3.21879ZM16.1834 3.2852C16.2188 3.29226 16.067 3.30191 16.0125 3.3018C15.8902 3.29905 16.1704 3.28047 16.1834 3.2852ZM14.2732 3.09672C14.2431 3.10604 13.9915 3.22912 13.9764 3.25102C14.0981 3.19877 14.3384 3.07186 14.2732 3.09672ZM15.2732 2.83305C15.0608 2.86785 14.7223 2.95963 14.5242 3.03618C14.4674 3.05728 14.4155 3.08664 14.368 3.10649C14.2924 3.13828 14.3544 3.09887 14.3494 3.10063L14.2752 3.13481C14.2101 3.16939 14.1853 3.19706 14.3426 3.127C14.2702 3.16331 14.1988 3.20079 14.1287 3.24028C14.4037 3.12113 14.3732 3.10489 14.4529 3.07133C14.566 3.02718 14.5679 3.0575 14.5486 3.07426C14.6323 3.0186 15.033 2.88146 15.2732 2.83305ZM16.8914 3.05571C17.0112 3.0615 17.2109 3.14929 17.3152 3.19243C17.3256 3.19715 17.309 3.08866 17.4168 3.21391C17.4865 3.28246 16.988 3.09342 16.8914 3.05571ZM14.8416 3.002C14.4809 3.13552 14.6105 3.07014 14.5428 3.08598C14.4016 3.12527 14.4702 3.15796 14.4881 3.15336C14.5594 3.13113 14.7922 3.02176 14.8416 3.002ZM19.0184 2.83012C19.0311 2.84245 19.1612 3.0791 19.1609 3.08891C19.2521 3.31329 18.8544 2.60232 19.0184 2.83012ZM15.49 2.72661C15.259 2.74696 15.0084 2.84258 14.9793 2.85161C14.9443 2.86036 14.9953 2.83117 14.9871 2.83305C14.9659 2.83384 14.5965 2.95527 14.5799 2.96684C14.5676 2.97237 14.6412 2.96833 14.5691 3.00297C14.7055 2.92076 15.3998 2.75212 15.4383 2.75688C15.4665 2.75116 15.2487 2.76086 15.5867 2.7227L15.49 2.72661ZM14.8699 2.82231C14.6946 2.86477 14.3358 3.02743 14.4764 2.9434C14.5477 2.90116 14.6043 2.89793 14.6141 2.89457C14.7095 2.86067 14.9104 2.79673 14.8699 2.82231ZM14.8894 2.87309C14.9851 2.85334 14.726 2.93373 14.6629 2.95512C14.5229 2.99649 14.8711 2.87412 14.8894 2.87309ZM15.1199 2.72172C15.2845 2.68862 14.5568 2.88976 14.5174 2.91801C14.5598 2.8848 15.0952 2.71708 15.1199 2.72172ZM14.618 2.84965C14.646 2.8444 14.6004 2.87237 14.5223 2.90239C14.4915 2.90712 14.5522 2.86241 14.618 2.84965ZM15.3777 2.79204C15.2553 2.81349 15.068 2.85332 15.0066 2.88383C15.125 2.85017 15.3133 2.81552 15.3777 2.79204ZM15.1268 2.70707C15.1018 2.70583 14.5691 2.87684 14.6658 2.8311C14.7295 2.78811 15.2646 2.66144 15.1268 2.70707ZM17.1443 2.74321C17.0421 2.69509 17.2813 2.75491 17.3484 2.79692C17.3428 2.8098 17.1627 2.74909 17.1443 2.74321ZM16.657 2.61528C16.7879 2.65605 16.4493 2.64188 16.409 2.60649C16.4066 2.5981 16.632 2.60577 16.657 2.61528ZM16.6414 2.53715C16.7456 2.56598 16.5099 2.55015 16.4353 2.53813C16.4317 2.52091 16.625 2.53166 16.6414 2.53715ZM16.3328 2.252C16.6865 2.31958 16.3835 2.29424 17.1512 2.37797C16.8185 2.35061 17.1243 2.40761 17.0584 2.41313C17.0059 2.41587 16.8168 2.3679 16.9217 2.42094C16.7879 2.34679 16.232 2.32092 16.1941 2.32231H16.1951C16.1791 2.31838 16.2212 2.23685 16.3328 2.252ZM16.6102 2.25786C16.6177 2.24609 16.7411 2.25547 16.8719 2.27934C17.0268 2.30599 17.182 2.35311 17.2283 2.36723C17.1986 2.37001 17.0348 2.33283 16.8719 2.30864C16.7334 2.28711 16.6042 2.27161 16.6102 2.25786Z" fill="#FF3C3C"/>
</svg>
